<svg width="20" height="23" viewBox="0 0 20 23" fill="none" xmlns="http://www.w3.org/2000/svg">
<path d="M12.9758 2.84692L13.9356 1.11533C13.9479 1.09311 13.9557 1.06869 13.9586 1.04345C13.9615 1.01821 13.9593 0.992657 13.9523 0.968241C13.9453 0.943824 13.9336 0.921025 13.9178 0.901146C13.902 0.881267 13.8824 0.864696 13.8602 0.852381C13.8153 0.827509 13.7624 0.821478 13.7131 0.835616C13.6638 0.849753 13.6221 0.882901 13.5972 0.927766L12.6268 2.67855C11.7988 2.31556 10.9045 2.12815 10.0004 2.12815C9.09633 2.12815 8.20206 2.31556 7.37405 2.67855L6.40357 0.927766C6.37869 0.882901 6.33702 0.849753 6.28771 0.835616C6.23839 0.821478 6.18549 0.827509 6.14062 0.852381C6.09576 0.877253 6.06261 0.918929 6.04847 0.968241C6.03433 1.01755 6.04036 1.07046 6.06524 1.11533L7.02509 2.84693C6.11142 3.2973 5.33943 3.9906 4.7938 4.85078C4.24817 5.71096 3.94998 6.7048 3.93193 7.72328H16.0689C16.0509 6.70479 15.7527 5.71096 15.2071 4.85077C14.6614 3.99059 13.8894 3.29729 12.9758 2.84692ZM7.19952 5.50252C7.09928 5.50252 7.0013 5.47279 6.91795 5.4171C6.83461 5.36142 6.76965 5.28227 6.73129 5.18966C6.69293 5.09705 6.6829 4.99515 6.70245 4.89684C6.72201 4.79853 6.77028 4.70823 6.84115 4.63735C6.91203 4.56648 7.00233 4.51821 7.10064 4.49865C7.19895 4.4791 7.30085 4.48914 7.39346 4.52749C7.48607 4.56585 7.56522 4.63081 7.6209 4.71415C7.67659 4.7975 7.70632 4.89548 7.70632 4.99572C7.70617 5.13008 7.65272 5.2589 7.55771 5.35391C7.4627 5.44892 7.33388 5.50237 7.19952 5.50252ZM12.8013 5.50252C12.7011 5.50252 12.6031 5.47279 12.5197 5.4171C12.4364 5.36142 12.3714 5.28227 12.3331 5.18966C12.2947 5.09705 12.2847 4.99515 12.3042 4.89684C12.3238 4.79853 12.3721 4.70823 12.4429 4.63735C12.5138 4.56648 12.6041 4.51821 12.7024 4.49865C12.8007 4.4791 12.9026 4.48914 12.9952 4.52749C13.0878 4.56585 13.167 4.63081 13.2227 4.71415C13.2784 4.7975 13.3081 4.89548 13.3081 4.99572C13.3079 5.13008 13.2545 5.2589 13.1595 5.35391C13.0645 5.44892 12.9357 5.50237 12.8013 5.50252ZM3.93184 16.9995C3.93184 17.3886 4.08641 17.7618 4.36155 18.0369C4.63669 18.3121 5.00986 18.4666 5.39897 18.4666H6.37257V21.4676C6.37208 21.6466 6.40691 21.8239 6.47506 21.9894C6.54322 22.1548 6.64335 22.3053 6.76973 22.432C6.89611 22.5587 7.04625 22.6592 7.21154 22.7278C7.37684 22.7964 7.55405 22.8317 7.73302 22.8317C7.91199 22.8317 8.0892 22.7964 8.2545 22.7278C8.4198 22.6592 8.56994 22.5587 8.69631 22.432C8.82269 22.3053 8.92283 22.1548 8.99098 21.9894C9.05913 21.8239 9.09396 21.6466 9.09348 21.4676V18.4666H10.9073V21.4676C10.9069 21.6466 10.9417 21.8239 11.0098 21.9894C11.078 22.1548 11.1781 22.3053 11.3045 22.432C11.4309 22.5587 11.581 22.6592 11.7463 22.7278C11.9116 22.7964 12.0888 22.8317 12.2678 22.8317C12.4468 22.8317 12.624 22.7964 12.7893 22.7278C12.9546 22.6592 13.1047 22.5587 13.2311 22.432C13.3575 22.3053 13.4576 22.1548 13.5257 21.9894C13.5939 21.8239 13.6287 21.6466 13.6282 21.4676V18.4666H14.6019C14.991 18.4666 15.3642 18.3121 15.6393 18.0369C15.9144 17.7618 16.069 17.3886 16.069 16.9995V8.20338H3.93184V16.9995ZM2.06456 7.96997C1.70387 7.97038 1.35807 8.11384 1.10302 8.36889C0.847977 8.62394 0.704514 8.96974 0.704107 9.33043V14.9989C0.703621 15.1779 0.738452 15.3552 0.806604 15.5206C0.874756 15.6861 0.97489 15.8365 1.10127 15.9633C1.22765 16.09 1.37779 16.1905 1.54308 16.2591C1.70838 16.3277 1.88559 16.363 2.06456 16.363C2.24353 16.363 2.42074 16.3277 2.58604 16.2591C2.75134 16.1905 2.90148 16.09 3.02786 15.9633C3.15423 15.8365 3.25437 15.6861 3.32252 15.5206C3.39067 15.3552 3.4255 15.1779 3.42502 14.9989V9.33043C3.42461 8.96974 3.28114 8.62393 3.0261 8.36889C2.77105 8.11384 2.42525 7.97037 2.06456 7.96997ZM17.9363 7.96997C17.5756 7.97037 17.2298 8.11384 16.9747 8.36889C16.7197 8.62393 16.5762 8.96974 16.5758 9.33043V14.9989C16.5753 15.1779 16.6101 15.3552 16.6783 15.5206C16.7464 15.6861 16.8466 15.8365 16.973 15.9633C17.0993 16.09 17.2495 16.1905 17.4148 16.2591C17.5801 16.3277 17.7573 16.363 17.9363 16.363C18.1152 16.363 18.2924 16.3277 18.4577 16.2591C18.623 16.1905 18.7732 16.09 18.8995 15.9633C19.0259 15.8365 19.1261 15.6861 19.1942 15.5206C19.2624 15.3552 19.2972 15.1779 19.2967 14.9989V9.33043C19.2963 8.96974 19.1528 8.62394 18.8978 8.36889C18.6427 8.11384 18.2969 7.97038 17.9363 7.96997Z" fill="white"/>
</svg>
