<svg width="15" height="16" viewBox="0 0 15 16" fill="none" xmlns="http://www.w3.org/2000/svg">
<path d="M2.49967 16.0013C2.26356 16.0013 2.06565 15.9214 1.90592 15.7617C1.7462 15.602 1.66634 15.4041 1.66634 15.168V13.4596C1.41634 13.1819 1.21495 12.8728 1.06217 12.5326C0.909397 12.1923 0.833008 11.8207 0.833008 11.418V3.5013C0.833008 2.34852 1.36773 1.50477 2.43717 0.970052C3.50662 0.43533 5.19412 0.167969 7.49967 0.167969C9.88856 0.167969 11.5969 0.424913 12.6247 0.938802C13.6525 1.45269 14.1663 2.30686 14.1663 3.5013V11.418C14.1663 11.8207 14.09 12.1923 13.9372 12.5326C13.7844 12.8728 13.583 13.1819 13.333 13.4596V15.168C13.333 15.4041 13.2531 15.602 13.0934 15.7617C12.9337 15.9214 12.7358 16.0013 12.4997 16.0013H11.6663C11.4302 16.0013 11.2323 15.9214 11.0726 15.7617C10.9129 15.602 10.833 15.4041 10.833 15.168V14.3346H4.16634V15.168C4.16634 15.4041 4.08648 15.602 3.92676 15.7617C3.76704 15.9214 3.56912 16.0013 3.33301 16.0013H2.49967ZM2.49967 6.83464H12.4997V4.33464H2.49967V6.83464ZM4.58301 11.8346C4.93023 11.8346 5.22537 11.7131 5.46842 11.4701C5.71148 11.227 5.83301 10.9319 5.83301 10.5846C5.83301 10.2374 5.71148 9.94227 5.46842 9.69922C5.22537 9.45616 4.93023 9.33463 4.58301 9.33463C4.23579 9.33463 3.94065 9.45616 3.69759 9.69922C3.45454 9.94227 3.33301 10.2374 3.33301 10.5846C3.33301 10.9319 3.45454 11.227 3.69759 11.4701C3.94065 11.7131 4.23579 11.8346 4.58301 11.8346ZM10.4163 11.8346C10.7636 11.8346 11.0587 11.7131 11.3018 11.4701C11.5448 11.227 11.6663 10.9319 11.6663 10.5846C11.6663 10.2374 11.5448 9.94227 11.3018 9.69922C11.0587 9.45616 10.7636 9.33463 10.4163 9.33463C10.0691 9.33463 9.77398 9.45616 9.53092 9.69922C9.28787 9.94227 9.16634 10.2374 9.16634 10.5846C9.16634 10.9319 9.28787 11.227 9.53092 11.4701C9.77398 11.7131 10.0691 11.8346 10.4163 11.8346Z" fill="#DF0000"/>
</svg>
