<svg width="21" height="15" viewBox="0 0 21 15" fill="none" xmlns="http://www.w3.org/2000/svg">
<path d="M4.66667 14.1654C3.48611 14.1654 2.49653 13.7661 1.69792 12.9674C0.899306 12.1688 0.5 11.1793 0.5 9.9987C0.5 8.81814 0.90625 7.82856 1.71875 7.02995C2.53125 6.23134 3.51389 5.83203 4.66667 5.83203C5.73611 5.83203 6.63542 6.15148 7.36458 6.79036C8.09375 7.42925 8.55556 8.22092 8.75 9.16536H9.29167L7.79167 4.9987H6.33333V3.33203H10.5V4.9987H9.58333L9.875 5.83203H13.875L12.6667 2.4987H10.5V0.832031H12.6667C13.0278 0.832031 13.3507 0.929253 13.6354 1.1237C13.9201 1.31814 14.125 1.58203 14.25 1.91536L15.6667 5.79036H16.3333C17.4861 5.79036 18.4688 6.19661 19.2812 7.00911C20.0938 7.82161 20.5 8.80425 20.5 9.95703C20.5 11.1237 20.0972 12.1168 19.2917 12.9362C18.4861 13.7556 17.5 14.1654 16.3333 14.1654C15.3333 14.1654 14.4549 13.8529 13.6979 13.2279C12.941 12.6029 12.4583 11.8043 12.25 10.832H8.75C8.55556 11.7904 8.08333 12.5855 7.33333 13.2174C6.58333 13.8494 5.69444 14.1654 4.66667 14.1654ZM4.66667 10.832H7V9.16536H4.66667V10.832ZM11.0833 9.16536H12.25C12.3194 8.84592 12.4132 8.54731 12.5312 8.26953C12.6493 7.99175 12.8056 7.73481 13 7.4987H10.4583L11.0833 9.16536ZM15.5 10.2904L17.0833 9.70703L16.25 7.4987L14.7083 8.08203L15.5 10.2904Z" fill="#DF0000"/>
</svg>
