<svg width="18" height="18" viewBox="0 0 18 18" fill="none" xmlns="http://www.w3.org/2000/svg">
<path d="M9.36311 6.14202C7.8023 6.14202 6.52857 7.41576 6.52857 8.97656C6.52857 10.5374 7.8023 11.8111 9.36311 11.8111C10.9239 11.8111 12.1976 10.5374 12.1976 8.97656C12.1976 7.41576 10.9239 6.14202 9.36311 6.14202ZM17.8646 8.97656C17.8646 7.80277 17.8752 6.63961 17.8093 5.46794C17.7434 4.10702 17.4329 2.89921 16.4378 1.90403C15.4405 0.906735 14.2348 0.598402 12.8739 0.532482C11.7001 0.466563 10.5369 0.477195 9.36524 0.477195C8.19144 0.477195 7.02828 0.466563 5.85661 0.532482C4.4957 0.598402 3.28788 0.908862 2.29271 1.90403C1.29541 2.90133 0.987074 4.10702 0.921154 5.46794C0.855235 6.64173 0.865867 7.8049 0.865867 8.97656C0.865867 10.1482 0.855235 11.3135 0.921154 12.4852C0.987074 13.8461 1.29753 15.0539 2.29271 16.0491C3.29001 17.0464 4.4957 17.3547 5.85661 17.4206C7.03041 17.4866 8.19357 17.4759 9.36524 17.4759C10.539 17.4759 11.7022 17.4866 12.8739 17.4206C14.2348 17.3547 15.4426 17.0443 16.4378 16.0491C17.4351 15.0518 17.7434 13.8461 17.8093 12.4852C17.8774 11.3135 17.8646 10.1504 17.8646 8.97656ZM9.36311 13.3379C6.9496 13.3379 5.00179 11.3901 5.00179 8.97656C5.00179 6.56306 6.9496 4.61524 9.36311 4.61524C11.7766 4.61524 13.7244 6.56306 13.7244 8.97656C13.7244 11.3901 11.7766 13.3379 9.36311 13.3379ZM13.9031 5.45518C13.3395 5.45518 12.8845 5.00013 12.8845 4.43662C12.8845 3.87311 13.3395 3.41806 13.9031 3.41806C14.4666 3.41806 14.9216 3.87311 14.9216 4.43662C14.9218 4.57043 14.8956 4.70295 14.8444 4.82661C14.7933 4.95026 14.7183 5.06261 14.6237 5.15723C14.529 5.25184 14.4167 5.32686 14.293 5.37799C14.1694 5.42912 14.0369 5.45535 13.9031 5.45518Z" fill="white"/>
</svg>
