<svg width="18" height="21" viewBox="0 0 18 21" fill="none" xmlns="http://www.w3.org/2000/svg">
<path d="M11.9402 4.01813C12.3182 3.5824 12.6065 3.0763 12.7884 2.52886C12.9703 1.98143 13.0422 1.40345 13.0002 0.828125C11.8395 0.921812 10.7622 1.46768 10.0002 2.34812C9.63525 2.7701 9.35873 3.261 9.18696 3.79177C9.0152 4.32253 8.95167 4.88237 9.00016 5.43813C9.5663 5.44284 10.1259 5.31722 10.6358 5.07098C11.1456 4.82475 11.5919 4.4645 11.9402 4.01813ZM14.4602 11.4581C14.4669 10.6919 14.6687 9.93994 15.0466 9.27333C15.4245 8.60671 15.9661 8.04738 16.6202 7.64812C16.2074 7.05336 15.6617 6.56296 15.0264 6.2158C14.3911 5.86864 13.6836 5.67428 12.9602 5.64813C11.4002 5.48813 9.96016 6.55813 9.13016 6.55813C8.30016 6.55813 7.13016 5.66813 5.83016 5.68813C4.98028 5.71612 4.15218 5.96391 3.4266 6.40731C2.70103 6.85072 2.10276 7.47461 1.69016 8.21813C-0.0698442 11.2781 1.24016 15.8281 3.00016 18.2981C3.80016 19.5081 4.80016 20.8781 6.12016 20.8281C7.44016 20.7781 7.87016 20.0081 9.40016 20.0081C10.9302 20.0081 11.4002 20.8281 12.7002 20.7981C14.0002 20.7681 14.9202 19.5581 15.7602 18.3481C16.3552 17.4697 16.82 16.5097 17.1402 15.4981C16.3476 15.1601 15.6715 14.5974 15.1952 13.8794C14.7189 13.1615 14.4634 12.3197 14.4602 11.4581Z" fill="white"/>
</svg>
