<svg width="16" height="14" viewBox="0 0 16 14" fill="none" xmlns="http://www.w3.org/2000/svg">
<path fill-rule="evenodd" clip-rule="evenodd" d="M16 14H12.4636V9.0783C12.4636 7.7903 11.9109 6.91075 10.6942 6.91075C9.764 6.91075 9.24655 7.50435 9.00582 8.07625C8.91527 8.28135 8.92945 8.5673 8.92945 8.85325V14H5.42618C5.42618 14 5.47127 5.28185 5.42618 4.48945H8.92945V5.9822C9.13673 5.32945 10.256 4.3981 12.0422 4.3981C14.2585 4.3981 16 5.7659 16 8.71185V14ZM1.88364 3.2998H1.86073C0.732 3.2998 0 2.57285 0 1.6513C0 0.7119 0.753455 0 1.90509 0C3.05564 0 3.76327 0.71015 3.78545 1.6485C3.78545 2.57005 3.05564 3.2998 1.88364 3.2998ZM0.403636 4.48945H3.52218V14H0.403636V4.48945Z" fill="white"/>
</svg>
