<svg width="18" height="17" viewBox="0 0 18 17" fill="none" xmlns="http://www.w3.org/2000/svg">
<path d="M13.9382 6.0013L13.0215 4.0013L11.0215 3.08464L13.0215 2.16797L13.9382 0.167969L14.8548 2.16797L16.8548 3.08464L14.8548 4.0013L13.9382 6.0013ZM15.6048 11.8346L14.9382 10.418L13.5215 9.7513L14.9382 9.08463L15.6048 7.66797L16.2715 9.08463L17.6882 9.7513L16.2715 10.418L15.6048 11.8346ZM4.77148 16.8346L4.52148 14.8763C4.41037 14.8346 4.30273 14.7791 4.19857 14.7096C4.0944 14.6402 4.0076 14.5707 3.93815 14.5013L2.10482 15.293L0.0214844 11.668L1.60482 10.5013V9.83464L0.0214844 8.66797L2.10482 5.04297L3.93815 5.83464C4.0076 5.76519 4.0944 5.69575 4.19857 5.6263C4.30273 5.55686 4.41037 5.5013 4.52148 5.45964L4.77148 3.5013H8.93815L9.18815 5.45964C9.29926 5.5013 9.4069 5.55686 9.51107 5.6263C9.61523 5.69575 9.70204 5.76519 9.77148 5.83464L11.6048 5.04297L13.6882 8.66797L12.1048 9.83464V10.5013L13.6882 11.668L11.6048 15.293L9.77148 14.5013C9.70204 14.5707 9.61523 14.6402 9.51107 14.7096C9.4069 14.7791 9.29926 14.8346 9.18815 14.8763L8.93815 16.8346H4.77148ZM6.85482 12.668C7.54926 12.668 8.13954 12.4249 8.62565 11.9388C9.11176 11.4527 9.35482 10.8624 9.35482 10.168C9.35482 9.47352 9.11176 8.88325 8.62565 8.39713C8.13954 7.91102 7.54926 7.66797 6.85482 7.66797C6.16037 7.66797 5.5701 7.91102 5.08398 8.39713C4.59787 8.88325 4.35482 9.47352 4.35482 10.168C4.35482 10.8624 4.59787 11.4527 5.08398 11.9388C5.5701 12.4249 6.16037 12.668 6.85482 12.668Z" fill="#DF0000"/>
</svg>
