<svg width="16" height="14" viewBox="0 0 16 14" fill="none" xmlns="http://www.w3.org/2000/svg">
<path fill-rule="evenodd" clip-rule="evenodd" d="M7.5208 4.00656L7.55438 4.5602L6.99479 4.49241C4.95791 4.23254 3.17843 3.35124 1.66756 1.87111L0.928908 1.13669L0.73865 1.67903C0.33575 2.88799 0.593158 4.16474 1.43253 5.02345C1.8802 5.49799 1.77948 5.56578 1.00725 5.28332C0.73865 5.19293 0.503625 5.12513 0.481242 5.15903C0.4029 5.23812 0.6715 6.2663 0.884142 6.67306C1.17513 7.23799 1.76828 7.79163 2.4174 8.11929L2.96579 8.37916L2.31668 8.39046C1.68994 8.39046 1.66756 8.40176 1.73471 8.63903C1.95854 9.37344 2.84268 10.1531 3.82755 10.492L4.52143 10.7293L3.91708 11.0908C3.02175 11.6106 1.96973 11.9044 0.917717 11.9269C0.414092 11.9382 0 11.9834 0 12.0173C0 12.1303 1.36538 12.7631 2.15999 13.0116C4.54382 13.746 7.37531 13.4297 9.50173 12.1755C11.0126 11.2829 12.5235 9.50903 13.2286 7.79163C13.6091 6.87643 13.9896 5.20423 13.9896 4.40202C13.9896 3.88228 14.0232 3.81449 14.6499 3.19306C15.0192 2.8315 15.3662 2.43604 15.4333 2.32306C15.5452 2.10838 15.534 2.10838 14.9633 2.30046C14.012 2.63942 13.8777 2.59423 14.3477 2.08578C14.6947 1.72423 15.1088 1.0689 15.1088 0.876824C15.1088 0.842928 14.9409 0.899422 14.7506 1.00111C14.5492 1.1141 14.1015 1.28358 13.7658 1.38527L13.1614 1.57734L12.613 1.20449C12.3108 1.00111 11.8856 0.775136 11.6617 0.707344C11.0909 0.549162 10.218 0.571759 9.70318 0.752539C8.30422 1.26098 7.42008 2.57163 7.5208 4.00656Z" fill="white"/>
</svg>
